<svg xmlns="http://www.w3.org/2000/svg" version="1.1" xmlns:xlink="http://www.w3.org/1999/xlink" width="512" height="512" x="0" y="0" viewBox="0 0 32 32" style="enable-background:new 0 0 512 512" xml:space="preserve" class=""><g><path d="M31.943 12.047c-.004-.717-.26-1.358-.723-1.881s-1.348-.943-2.198-.631c-1.522.56-3.059 1.122-4.573 1.689V9.771a3.213 3.213 0 0 0-3.197-3.198l-13.166.001-4.144-4.142a1.067 1.067 0 1 0-1.503 1.513l2.629 2.629h-1.87A3.214 3.214 0 0 0 0 9.772V22.22a3.213 3.213 0 0 0 3.197 3.198h18.055c.739 0 1.418-.269 1.963-.698l4.824 4.823a1.067 1.067 0 1 0 1.573-1.44l-5.229-5.23c.045-.21.066-.429.066-.652v-1.454c1.543.494 3.124.958 4.683 1.431.208.063.451.14.765.173.313.032.748.013 1.15-.235s.66-.666.787-1.079.169-.863.165-1.41zM21.252 23.282H3.197a1.036 1.036 0 0 1-1.063-1.063V9.772c0-.609.455-1.071 1.063-1.071h3.998l14.491 14.492a1.072 1.072 0 0 1-.434.089zm1.062-2.479L10.213 8.701h11.039c.608 0 1.063.461 1.063 1.071v11.031zm7.442-.648-4.574-1.388c-.419-.113-.733-.328-.732-.495v-4.559c.058-.291.548-.4.796-.521 1.455-.547 2.918-1.076 4.378-1.611.157-.012.187.353.188.479l.056 7.6c.009.35.009.535-.112.495z" fill="#000000" opacity="1" data-original="#000000" class=""></path></g></svg>